<?xml version="1.0" encoding="iso-8859-1"?>
<!-- Generator: Adobe Illustrator 19.0.0, SVG Export Plug-In . SVG Version: 6.00 Build 0)  -->
<svg version="1.1" id="Layer_1" xmlns="http://www.w3.org/2000/svg" xmlns:xlink="http://www.w3.org/1999/xlink" x="0px" y="0px"
	 viewBox="0 0 512.019 512.019" style="enable-background:new 0 0 512.019 512.019;" xml:space="preserve">
<path style="fill:#DA4453;" d="M364.437,223.026L208.373,379.059c-20.781,20.812-54.625,20.812-75.406,0
	c-20.813-20.781-20.813-54.625,0-75.407l156.031-156.063L206.03,64.635L49.997,220.682l0,0c-66.657,66.657-66.657,174.705,0,241.345
	c66.657,66.657,174.72,66.657,241.345,0l156.064-156.032L364.437,223.026z"/>
<polygon style="fill:#CCD1D9;" points="130.623,140.057 213.592,223.026 288.998,147.588 206.03,64.635 "/>
<g>
	<path style="fill:#AAB2BD;" d="M466.219,219.245c1.938-1.938,3.125-4.609,3.125-7.562c0-5.891-4.781-10.656-10.656-10.656
		c-2.938,0-5.625,1.188-7.562,3.125l-30.156,30.156l0,0c-1.938,1.938-3.125,4.594-3.125,7.546c0,5.891,4.781,10.672,10.656,10.672
		c2.969,0,5.625-1.203,7.562-3.141L466.219,219.245z"/>
	<path style="fill:#AAB2BD;" d="M508.875,264.48c-2.062-2.078-4.812-3.125-7.531-3.125l0,0h-42.656l0,0
		c-2.719,0-5.469,1.047-7.531,3.125c-4.188,4.172-4.188,10.922,0,15.078c2.062,2.094,4.812,3.125,7.531,3.125h42.656
		c2.719,0,5.469-1.031,7.531-3.125C513.063,275.402,513.063,268.652,508.875,264.48z"/>
	<path style="fill:#AAB2BD;" d="M405.875,161.479c-4.156-4.172-10.906-4.172-15.062,0c-2.094,2.078-3.125,4.812-3.125,7.547v42.657
		c0,2.719,1.031,5.469,3.125,7.531c4.156,4.188,10.906,4.188,15.062,0c2.094-2.062,3.125-4.812,3.125-7.531l0,0v-42.657l0,0
		C409,166.291,407.969,163.557,405.875,161.479z"/>
	<path style="fill:#AAB2BD;" d="M307.873,60.868L307.873,60.868c1.938-1.938,3.126-4.594,3.126-7.531
		c0-5.906-4.782-10.672-10.688-10.672c-2.938,0-5.594,1.203-7.531,3.125v-0.016l-30.156,30.188l0,0
		c-1.938,1.922-3.125,4.594-3.125,7.531c0,5.891,4.781,10.672,10.656,10.672c2.938,0,5.625-1.203,7.531-3.125l0,0L307.873,60.868z"
		/>
	<path style="fill:#AAB2BD;" d="M350.531,106.119c-2.094-2.078-4.812-3.125-7.531-3.125l0,0h-42.657l0,0
		c-2.75,0-5.469,1.047-7.562,3.125c-4.156,4.172-4.156,10.922,0,15.094c2.094,2.078,4.812,3.125,7.562,3.125H343
		c2.719,0,5.438-1.047,7.531-3.125C354.687,117.041,354.687,110.291,350.531,106.119z"/>
	<path style="fill:#AAB2BD;" d="M247.53,3.118c-4.156-4.157-10.906-4.157-15.094,0c-2.062,2.094-3.125,4.812-3.125,7.562v42.625
		c0,2.75,1.062,5.469,3.125,7.562c4.188,4.157,10.938,4.157,15.094,0c2.094-2.094,3.125-4.812,3.125-7.547l0,0V10.665l0,0
		C250.655,7.931,249.623,5.212,247.53,3.118z"/>
</g>
<polygon style="fill:#CCD1D9;" points="447.406,305.995 364.437,223.026 288.998,298.433 371.968,381.403 "/>
<g>
</g>
<g>
</g>
<g>
</g>
<g>
</g>
<g>
</g>
<g>
</g>
<g>
</g>
<g>
</g>
<g>
</g>
<g>
</g>
<g>
</g>
<g>
</g>
<g>
</g>
<g>
</g>
<g>
</g>
</svg>
